<svg width="726" height="800" viewBox="0 0 726 800" fill="none" xmlns="http://www.w3.org/2000/svg">
<path d="M355.645 316.459C356.927 307.506 356.197 298.151 353.019 289.047C342.418 258.675 309.089 242.589 278.706 253.202C248.343 263.803 232.268 297.132 242.87 327.509C246.039 336.616 251.294 344.411 257.875 350.608C227.973 361.493 212.203 394.494 222.721 424.626C233.323 454.995 266.651 471.073 297.034 460.471C311.689 455.344 322.981 444.905 329.583 432.1C332.974 453.633 333.326 480.832 315.343 487.106L355.488 473.084L395.64 459.08C377.657 465.351 361.009 443.862 350.257 424.877C363.411 430.821 378.732 431.952 393.395 426.833C423.764 416.231 439.842 382.897 429.237 352.528C418.698 322.387 385.822 306.369 355.645 316.459Z" fill="#373737" fill-opacity="0.3"/>
<path d="M135.538 194.275C135.931 191.511 135.703 188.616 134.717 185.798C131.444 176.396 121.123 171.427 111.721 174.7C102.319 177.973 97.3505 188.294 100.623 197.693C101.607 200.52 103.235 202.918 105.27 204.835C96.0183 208.2 91.1385 218.414 94.3996 227.734C97.6724 237.136 107.993 242.104 117.395 238.831C121.924 237.245 125.427 234.02 127.459 230.05C128.508 236.714 128.62 245.126 123.055 247.076L135.476 242.739L147.906 238.403C142.344 240.353 137.189 233.689 133.86 227.817C137.925 229.657 142.669 230.008 147.197 228.425C156.599 225.152 161.57 214.831 158.295 205.429C155.06 196.116 144.878 191.159 135.538 194.275Z" fill="#373737" fill-opacity="0.3"/>
<path d="M516.223 567.9C515.836 570.659 516.054 573.551 517.047 576.378C520.314 585.78 530.643 590.743 540.042 587.476C549.445 584.197 554.407 573.882 551.14 564.483C550.148 561.656 548.52 559.254 546.497 557.34C555.733 553.976 560.625 543.761 557.358 534.442C554.094 525.04 543.764 520.066 534.365 523.344C529.831 524.928 526.328 528.156 524.301 532.126C523.256 525.453 523.143 517.047 528.7 515.1L516.279 519.431L503.858 523.773C509.426 521.814 514.568 528.49 517.906 534.359C513.839 532.513 509.098 532.171 504.549 533.754C495.144 537.021 490.184 547.347 493.463 556.75C496.7 566.051 506.874 571.029 516.223 567.9Z" fill="#373737" fill-opacity="0.3"/>
<path d="M645.421 607.922C647.861 602.877 648.192 597.028 646.334 591.738L444.701 14.1903C442.852 8.88226 438.964 4.53122 433.893 2.1061C428.862 -0.333789 423.028 -0.670529 417.72 1.18745L15.0616 141.765C4.01716 145.605 -1.8049 157.689 2.04693 168.73L203.672 746.29C205.524 751.598 209.405 755.943 214.474 758.368C217.369 759.786 220.517 760.477 223.66 760.477C226.018 760.477 228.375 760.09 230.637 759.293L633.317 618.704C638.628 616.867 642.982 612.979 645.421 607.922ZM236.684 712.347L48.9956 174.768L411.697 48.1243L599.391 585.715L236.684 712.347Z" fill="#373737" fill-opacity="0.3"/>
<path d="M522.316 53.7012C518.471 42.6508 506.354 36.8199 495.351 40.6865C484.309 44.5265 478.475 56.6107 482.339 67.6523L677.007 625.223L294.326 758.835C283.281 762.684 277.453 774.759 281.305 785.801C284.359 794.541 292.542 800.003 301.294 800.003C303.61 800.003 305.967 799.643 308.271 798.818L710.935 658.229C721.977 654.395 727.811 642.305 723.95 631.264L522.316 53.7012Z" fill="#373737" fill-opacity="0.3"/>
</svg>
