<svg width="50" height="50" viewBox="0 0 50 50" fill="none" xmlns="http://www.w3.org/2000/svg">
<path d="M25.0473 4.74856e-05C11.2483 -0.0265858 0.0266808 11.1536 4.74856e-05 24.9527C-0.0265858 38.7518 11.1536 49.9733 24.9527 50C38.7518 50.0266 49.9733 38.8464 50 25.0473C50.0266 11.2483 38.8464 0.0266808 25.0473 4.74856e-05ZM25.0444 1.5152C38.0238 1.53887 48.5085 12.065 48.4848 25.0444C48.4611 38.0238 37.935 48.5085 24.9556 48.4848C11.9762 48.4611 1.49152 37.935 1.5152 24.9556C1.53887 11.9762 12.065 1.49152 25.0444 1.5152ZM25.0444 3.78792C24.6242 3.78792 24.2839 4.12528 24.2839 4.54549C24.2839 4.96275 24.6212 5.30307 25.0385 5.30307C25.4587 5.30307 25.799 4.96571 25.799 4.54549C25.799 4.12824 25.4616 3.78792 25.0444 3.78792ZM21.0553 4.17558C21.002 4.17263 20.9517 4.17854 20.9044 4.19038C20.493 4.27028 20.2267 4.66682 20.3066 5.07816C20.3865 5.4895 20.786 5.75584 21.1973 5.67298C21.6057 5.59308 21.872 5.19653 21.7921 4.78519C21.7211 4.43304 21.4134 4.17558 21.0553 4.17558ZM29.0483 4.19038C28.6813 4.17854 28.3588 4.436 28.2878 4.79703C28.2049 5.20837 28.4683 5.60787 28.8796 5.69073C29.2909 5.77063 29.6905 5.50726 29.7704 5.09592C29.8532 4.68458 29.5898 4.28508 29.1785 4.20222C29.1371 4.1963 29.0927 4.19038 29.0483 4.19038ZM17.2171 5.3297C17.1165 5.3297 17.0159 5.35042 16.9212 5.38593C16.7347 5.46287 16.5868 5.61083 16.5098 5.79727C16.4329 5.9837 16.4329 6.19085 16.5098 6.37729C16.6696 6.76495 17.1106 6.94843 17.4982 6.78863C17.8859 6.62882 18.0694 6.18789 17.9096 5.80023C17.7942 5.51909 17.5219 5.33562 17.2171 5.3297ZM32.8835 5.36225C32.5698 5.35338 32.2857 5.53981 32.1644 5.82686C32.0875 6.01329 32.0875 6.22044 32.1644 6.40688C32.2384 6.59331 32.3864 6.74128 32.5728 6.81822C32.7592 6.89516 32.9664 6.89516 33.1528 6.81822C33.3392 6.74424 33.4872 6.59627 33.5641 6.40984C33.7239 6.02513 33.5405 5.58124 33.1558 5.42144C33.0699 5.38297 32.9752 5.36225 32.8835 5.36225ZM13.6808 7.2118C13.5269 7.2118 13.3789 7.25619 13.2487 7.33905C12.9025 7.57283 12.8078 8.04336 13.0416 8.39255C13.2724 8.73879 13.7429 8.83348 14.0892 8.60266C14.4384 8.37184 14.533 7.90131 14.2993 7.55212C14.1631 7.34497 13.9294 7.21772 13.6808 7.2118ZM36.411 7.25619C36.1535 7.25027 35.9108 7.37752 35.7688 7.59059C35.535 7.93978 35.6268 8.41031 35.973 8.64113C36.1417 8.75358 36.3459 8.79501 36.5441 8.75654C36.7394 8.71807 36.914 8.60266 37.0265 8.43694C37.2603 8.08775 37.1656 7.61722 36.8193 7.3864C36.698 7.30354 36.5589 7.25915 36.411 7.25619ZM10.5795 9.75086C10.3723 9.7479 10.177 9.8278 10.029 9.96984C9.7331 10.2658 9.7331 10.7452 10.029 11.0441C10.325 11.34 10.8044 11.34 11.1003 11.0441C11.3962 10.7481 11.3962 10.2687 11.1032 9.9728C10.9612 9.83372 10.7748 9.75382 10.5795 9.75086ZM39.5034 9.81004C39.2992 9.80413 39.1039 9.88403 38.9559 10.029C38.66 10.325 38.66 10.8044 38.9559 11.1003C39.095 11.2423 39.2903 11.3222 39.4916 11.3222C39.6928 11.3252 39.8852 11.2453 40.0272 11.1032C40.3231 10.8073 40.3231 10.3279 40.0302 10.029C39.8881 9.88995 39.7017 9.813 39.5034 9.81004ZM8.03152 12.8433C7.77406 12.8403 7.5314 12.9646 7.3864 13.1777C7.27395 13.3464 7.23252 13.5506 7.27099 13.7488C7.30946 13.9442 7.42783 14.1187 7.59355 14.2312C7.75927 14.3437 7.96642 14.3851 8.16173 14.3466C8.36 14.3081 8.5346 14.1898 8.64409 14.0241C8.87787 13.6778 8.78613 13.2073 8.4399 12.9735C8.31857 12.8936 8.17652 12.8492 8.03152 12.8433ZM42.0425 12.9143C41.8886 12.9114 41.7377 12.9558 41.6104 13.0416C41.2612 13.2724 41.1695 13.7429 41.4003 14.0892C41.6311 14.4384 42.1017 14.533 42.4479 14.3022C42.7971 14.0714 42.8918 13.6009 42.661 13.2517C42.5219 13.0445 42.291 12.9173 42.0425 12.9143ZM24.4318 14.9444C18.0279 14.9444 13.6364 19.3478 13.6364 25.7635C13.6364 32.3331 17.9392 36.5708 24.6478 36.5737C26.1896 36.5737 27.6693 36.3636 28.7849 35.9996V34.1619C28.0066 34.4845 26.3731 34.7064 24.7396 34.7064C19.2057 34.7064 15.6576 31.2441 15.6576 25.8286C15.6576 20.5285 19.2472 16.7851 24.2868 16.7851C29.3797 16.7851 32.8243 19.9189 32.8243 24.6094C32.8243 27.5539 31.8537 29.4419 30.3267 29.4419C29.4448 29.4419 28.9536 28.9003 28.9536 27.9948V20.712H26.7489V22.2775H26.5299C26.0239 21.1381 24.8698 20.4398 23.5085 20.4398C20.8659 20.4398 19.0548 22.6296 19.0548 25.7783C19.0548 29.0542 20.8541 31.2589 23.55 31.2589C25.0681 31.2589 26.1926 30.5457 26.7371 29.2377H26.9561C27.1632 30.4924 28.344 31.3358 29.9006 31.3358C32.9309 31.3358 34.8485 28.705 34.8485 24.5324C34.8485 18.8565 30.5871 14.9444 24.4318 14.9444ZM6.13462 16.3767C5.8239 16.3678 5.53981 16.5542 5.41848 16.8442C5.34154 17.0277 5.34154 17.2378 5.41848 17.4243C5.49246 17.6077 5.64043 17.7557 5.82686 17.8356C6.21157 17.9954 6.65546 17.8119 6.81822 17.4243C6.89516 17.2408 6.89516 17.0307 6.81822 16.8442C6.74128 16.6608 6.59331 16.5128 6.40688 16.4329C6.32106 16.3974 6.22932 16.3796 6.13462 16.3767ZM43.9186 16.4536C43.818 16.4536 43.7174 16.4743 43.6227 16.5128C43.238 16.6726 43.0516 17.1135 43.2114 17.5012C43.2883 17.6876 43.4363 17.8356 43.6198 17.9125C43.8062 17.9895 44.0163 17.9895 44.1998 17.9125C44.5874 17.7527 44.7709 17.3118 44.6141 16.9241C44.4957 16.643 44.2235 16.4595 43.9186 16.4536ZM4.96867 20.2119C4.59876 20.2001 4.2762 20.4575 4.20222 20.8215C4.16375 21.0168 4.20222 21.221 4.31467 21.3897C4.42712 21.5554 4.59876 21.6738 4.79703 21.7122C5.20541 21.7951 5.60491 21.5288 5.68777 21.1174C5.77063 20.7091 5.5043 20.3096 5.09296 20.2267C5.05153 20.2178 5.0101 20.2119 4.96867 20.2119ZM45.0757 20.2948C45.0225 20.2948 44.9721 20.2977 44.9218 20.3096C44.7265 20.348 44.5519 20.4634 44.4395 20.6292C44.33 20.7978 44.2886 21.002 44.327 21.2003C44.4069 21.6087 44.8064 21.875 45.2178 21.7951C45.6261 21.7152 45.8925 21.3157 45.8126 20.9044C45.7416 20.5522 45.4338 20.2977 45.0757 20.2948ZM23.9909 22.5113C25.6096 22.5113 26.6454 23.7808 26.6454 25.8286C26.6454 27.8764 25.6096 29.1726 23.9643 29.1726C22.3958 29.1726 21.437 27.9149 21.437 25.8286C21.437 23.7423 22.384 22.5113 23.9909 22.5113ZM4.54549 24.201C4.12824 24.201 3.78792 24.5384 3.78792 24.9556C3.78792 25.3758 4.12528 25.7161 4.54549 25.7161C4.96275 25.7161 5.30307 25.3788 5.30307 24.9615C5.30307 24.5413 4.96571 24.201 4.54549 24.201ZM45.4545 24.2809C45.0373 24.2809 44.6999 24.6212 44.6969 25.0385C44.6969 25.4557 45.0373 25.796 45.4545 25.796C45.8718 25.799 46.2121 25.4587 46.2121 25.0414C46.215 24.8402 46.1351 24.6478 45.9931 24.5058C45.8511 24.3638 45.6557 24.2809 45.4545 24.2809ZM4.93316 28.196C4.88285 28.1931 4.83254 28.199 4.78224 28.2079C4.37386 28.2907 4.10456 28.6873 4.18742 29.0986C4.26732 29.5099 4.66386 29.7763 5.0752 29.6964C5.48654 29.6135 5.75288 29.217 5.67298 28.8056C5.60195 28.4505 5.29419 28.196 4.93316 28.196ZM45.0728 28.27C44.7058 28.2611 44.3833 28.5186 44.3093 28.8796C44.2264 29.288 44.4927 29.6875 44.9011 29.7704C45.3125 29.8532 45.712 29.5869 45.7948 29.1785C45.8777 28.7672 45.6114 28.3677 45.203 28.2848C45.1586 28.2759 45.1172 28.273 45.0728 28.27ZM6.09319 32.0342C5.99258 32.0342 5.89196 32.052 5.79727 32.0904C5.61083 32.1674 5.46287 32.3153 5.38593 32.4988C5.30899 32.6852 5.30899 32.8953 5.38593 33.0818C5.45991 33.2653 5.60787 33.4132 5.79431 33.4902C5.98074 33.5671 6.18789 33.5671 6.37433 33.4902C6.76199 33.3333 6.94547 32.8894 6.78567 32.5047C6.67025 32.2206 6.398 32.0372 6.09319 32.0342ZM43.8979 32.1082C43.5842 32.0993 43.3002 32.2857 43.1818 32.5757C43.019 32.9605 43.2025 33.4043 43.5872 33.5641C43.9749 33.7239 44.4158 33.5434 44.5786 33.1558C44.7413 32.7711 44.5578 32.3272 44.1731 32.1644C44.0844 32.1289 43.9926 32.1111 43.8979 32.1082ZM7.97825 35.5735C7.82733 35.5705 7.67641 35.6149 7.55212 35.7007C7.20292 35.9316 7.10823 36.4021 7.33905 36.7513C7.56987 37.1005 8.0404 37.1922 8.38959 36.9614C8.73583 36.7306 8.83052 36.26 8.60266 35.9138C8.46357 35.7037 8.22979 35.5764 7.97825 35.5735ZM42.001 35.6386C41.7436 35.6327 41.5009 35.757 41.3559 35.973C41.1221 36.3192 41.2168 36.7898 41.5631 37.0235C41.9093 37.2573 42.3798 37.1656 42.6136 36.8164C42.7261 36.6507 42.7675 36.4465 42.729 36.2482C42.6905 36.0529 42.5722 35.8783 42.4065 35.7658C42.2851 35.6859 42.146 35.6416 42.001 35.6386ZM10.5203 38.6778C10.3161 38.6748 10.1178 38.7547 9.9728 38.8968C9.67688 39.1927 9.67688 39.6721 9.96984 39.971C10.2658 40.2669 10.7452 40.2669 11.0441 39.971C11.34 39.675 11.34 39.1956 11.0441 38.8997C10.905 38.7606 10.7185 38.6807 10.5203 38.6778ZM39.4472 38.734C39.243 38.731 39.0447 38.8109 38.8997 38.9559C38.7577 39.095 38.6778 39.2903 38.6778 39.4916C38.6748 39.6928 38.7547 39.8852 38.8968 40.0272C39.1927 40.3231 39.6721 40.3231 39.971 40.0302C40.2669 39.7342 40.2669 39.2548 39.971 38.9559C39.8319 38.8169 39.6455 38.737 39.4472 38.734ZM13.6186 41.2257C13.3612 41.2198 13.1185 41.347 12.9735 41.5601C12.7427 41.9093 12.8344 42.3798 13.1836 42.6136C13.5299 42.8444 14.0004 42.7527 14.2312 42.4035C14.465 42.0573 14.3732 41.5867 14.027 41.3559C13.9057 41.2731 13.7636 41.2287 13.6186 41.2257ZM36.3399 41.276C36.1861 41.2731 36.0381 41.3174 35.9108 41.4003C35.5617 41.6311 35.467 42.1017 35.7007 42.4508C35.9316 42.8 36.4021 42.8947 36.7513 42.661C37.0975 42.4301 37.1922 41.9596 36.9614 41.6104C36.8223 41.4033 36.5915 41.276 36.3399 41.276ZM17.152 43.1226C16.8383 43.1167 16.5542 43.3031 16.4329 43.5902C16.356 43.7766 16.356 43.9837 16.4329 44.1702C16.5098 44.3566 16.6578 44.5046 16.8442 44.5815C17.2289 44.7413 17.6728 44.5578 17.8326 44.1731C17.9096 43.9867 17.9096 43.7796 17.8326 43.5931C17.7587 43.4067 17.6107 43.2587 17.4243 43.1818C17.3384 43.1463 17.2467 43.1256 17.152 43.1226ZM32.7947 43.1581C32.6941 43.1581 32.5935 43.1759 32.5018 43.2143C32.3153 43.2913 32.1674 43.4392 32.0875 43.6227C32.0105 43.8092 32.0105 44.0193 32.0875 44.2027C32.1644 44.3892 32.3124 44.5371 32.4958 44.6141C32.6823 44.691 32.8924 44.691 33.0759 44.6141C33.4635 44.4572 33.647 44.0133 33.4872 43.6286C33.3718 43.3445 33.0995 43.1611 32.7947 43.1581ZM20.9902 44.2945C20.6203 44.2856 20.3007 44.5401 20.2267 44.9011C20.1438 45.3125 20.4102 45.712 20.8215 45.7948C21.2299 45.8777 21.6294 45.6114 21.7122 45.203C21.7951 44.7916 21.5288 44.3921 21.1174 44.3093C21.076 44.3004 21.0346 44.2945 20.9902 44.2945ZM28.9536 44.3152C28.9033 44.3152 28.853 44.3181 28.8027 44.33C28.6074 44.3685 28.4328 44.4839 28.3203 44.6496C28.2079 44.8183 28.1664 45.0225 28.2079 45.2178C28.2878 45.6291 28.6843 45.8954 29.0956 45.8155C29.507 45.7356 29.7733 45.3361 29.6934 44.9248C29.6224 44.5726 29.3146 44.3181 28.9536 44.3152ZM24.9615 44.6969C24.5443 44.6969 24.204 45.0373 24.204 45.4545C24.201 45.8718 24.5413 46.2121 24.9586 46.2121C25.1598 46.215 25.3522 46.1351 25.4942 45.9931C25.6362 45.8511 25.7191 45.6557 25.7191 45.4545C25.7191 45.0373 25.3788 44.6999 24.9615 44.6969Z" fill="#A48E7F"/>
</svg>
