<svg width="50" height="50" viewBox="0 0 50 50" fill="none" xmlns="http://www.w3.org/2000/svg">
<path d="M25.2832 49.5312C11.7578 49.5996 0.654327 38.3398 0.966827 24.6094C1.2598 11.5332 12.1094 0.683582 25.6153 0.849598C38.9551 1.01561 49.9707 12.1191 49.6192 25.8496C49.2871 38.8769 38.545 49.5898 25.2832 49.5312ZM46.6602 25.1855C46.5625 12.9492 36.6602 3.53514 24.9805 3.71093C13.5938 3.87694 3.92581 13.1543 3.94534 25.2246C3.96487 37.4707 13.9453 46.8652 25.6348 46.6797C36.9922 46.5039 46.5723 37.2363 46.6602 25.1855Z" fill="#A48E7F"/>
<path d="M11.1231 25.6836C11.4844 24.4238 11.0449 23.2324 10.6836 21.9727C9.28713 17.0898 12.5293 12.2656 17.5781 11.6504C19.1797 11.4551 20.7227 11.7285 22.1778 12.4512C22.3926 12.5586 22.6758 12.6074 22.9199 12.5879C29.3848 11.9238 35.127 15.6055 37.1387 21.748C37.7539 23.6133 37.9199 25.5273 37.6856 27.4805C37.6563 27.7148 37.7149 27.998 37.8321 28.2031C40.1074 32.4609 38.4375 37.5781 34.0723 39.5801C31.5723 40.7324 29.0821 40.5859 26.6699 39.2578C26.3281 39.0723 26.0156 38.9844 25.6153 39.0234C18.8574 39.6484 12.627 34.9023 11.416 28.2227C11.2696 27.4121 11.2207 26.582 11.1231 25.6836ZM12.3047 26.0254C12.4219 26.7871 12.5098 27.8125 12.7442 28.8086C14.1113 34.5801 20.0293 38.6133 25.8985 37.8027C26.2793 37.7539 26.5723 37.8223 26.8946 38.0273C28.5156 39.0625 30.2832 39.4238 32.168 38.9746C36.9434 37.832 39.1113 32.6855 36.6113 28.4473C36.4746 28.2226 36.4063 27.8906 36.4453 27.6367C36.7969 25.3027 36.4942 23.0664 35.5567 20.9082C33.4863 16.1523 28.4082 12.9492 22.6465 13.7695C22.4024 13.8086 22.1192 13.7012 21.875 13.623C21.0156 13.3594 20.166 12.9199 19.2871 12.8223C16.543 12.5293 14.2774 13.5254 12.7246 15.8203C11.1621 18.125 11.0938 20.5859 12.334 23.0859C12.4414 23.3008 12.4805 23.5742 12.4707 23.8184C12.461 24.4727 12.3828 25.1269 12.3047 26.0254Z" fill="#A48E7F"/>
<path d="M24.3751 33.291C22.5879 33.2324 20.918 32.9589 19.5118 31.8261C18.877 31.3086 18.3985 30.6933 18.3008 29.8437C18.2227 29.1894 18.4766 28.6718 18.9844 28.3984C19.5411 28.1054 20.1758 28.164 20.6543 28.623C21.0157 28.9746 21.3282 29.375 21.6602 29.7558C22.6661 30.8984 24.7364 31.2207 26.045 30.4394C26.6797 30.0586 27.0704 29.541 26.9922 28.7695C26.9141 27.9785 26.3575 27.6367 25.6739 27.4511C24.3555 27.0996 23.0274 26.7773 21.709 26.4355C20.7813 26.1914 19.9512 25.791 19.2481 25.1074C17.8907 23.7793 17.6075 20.2539 20.5079 18.8672C23.2325 17.5683 25.9278 17.7539 28.4864 19.414C29.0723 19.7949 29.5215 20.3027 29.6778 21.0156C29.8243 21.6894 29.6485 22.1875 29.1504 22.5097C28.584 22.8711 27.8711 22.8613 27.3731 22.4511C27.0606 22.1875 26.7676 21.9043 26.5137 21.5918C25.5567 20.459 23.3985 20.4004 22.4317 20.8886C21.8751 21.1718 21.5137 21.6015 21.4942 22.2558C21.4747 22.9004 21.9043 23.2714 22.4219 23.4375C23.5157 23.789 24.6387 24.0429 25.752 24.3457C26.4063 24.5214 27.0801 24.6679 27.7149 24.9023C29.3262 25.5175 30.2344 26.6894 30.3126 28.4375C30.4004 30.1855 29.6876 31.5332 28.1739 32.4218C26.9825 33.1054 25.6543 33.2422 24.3751 33.291Z" fill="#A48E7F"/>
</svg>
