<svg width="50" height="50" viewBox="0 0 50 50" fill="none" xmlns="http://www.w3.org/2000/svg">
<path d="M47.9127 14.9846C46.5751 11.9287 44.667 9.20742 42.2415 6.89678C41.9283 6.59844 41.4329 6.61035 41.1346 6.92363C40.8363 7.23672 40.8483 7.73223 41.1614 8.03037C45.8513 12.4982 48.4342 18.5249 48.4342 25C48.4342 37.9217 37.9217 48.4343 24.9999 48.4343C12.0781 48.4343 1.56572 37.9217 1.56572 25C1.56572 12.0783 12.0783 1.56572 25 1.56572C29.7203 1.56572 34.2705 2.96279 38.1584 5.60566C38.5159 5.84873 39.0028 5.75586 39.246 5.39844C39.4891 5.04082 39.3962 4.55391 39.0387 4.31084C34.89 1.49072 30.0356 0 25 0C18.3223 0 12.0442 2.60039 7.32236 7.32236C2.60049 12.0442 0 18.3223 0 25C0 31.6777 2.60049 37.9558 7.32236 42.6776C12.0442 47.3996 18.3223 50 25 50C31.6777 50 37.9558 47.3996 42.6776 42.6776C47.3995 37.9558 50 31.6777 50 25C50 21.5184 49.2977 18.1486 47.9127 14.9846Z" fill="#A48E7F"/>
<path d="M36.3607 10.6007L21.3044 17.6096C20.9124 17.792 20.7426 18.2579 20.9251 18.6499C21.1076 19.0418 21.5734 19.2119 21.9652 19.0292L31.2529 14.7056L26.7375 18.361L16.3755 26.7493L10.7079 24.2696L18.6499 20.5725C19.0419 20.3899 19.2117 19.9243 19.0292 19.5323C18.8468 19.1403 18.3809 18.9703 17.9892 19.1529L9.44036 23.1326C8.98587 23.3441 8.69896 23.8069 8.71048 24.3079C8.72171 24.7981 9.018 25.2393 9.46712 25.4358L15.7954 28.2043L17.6489 39.3248C17.7629 40.0124 18.694 40.2081 19.0759 39.625L24.3333 31.6005L34.2758 36.2404C35.0724 36.6124 36.0203 36.0439 36.0717 35.1695L37.4725 11.3561C37.474 11.334 37.4739 11.3114 37.4734 11.2892C37.4577 10.735 36.8624 10.3687 36.3607 10.6007ZM18.5565 35.2471L17.3451 27.9788L29.6859 17.9886L20.2408 28.5786C20.1558 28.6739 20.0927 28.7938 20.0634 28.9183L18.5565 35.2471ZM20.2197 35.0225L21.3642 30.2151L22.8997 30.9317L20.2197 35.0225ZM23.7667 29.6084L22.1098 28.8353L30.2611 19.696L29.0821 21.4957L23.7667 29.6084ZM34.5349 34.6336L25.2003 30.2775L35.7371 14.1951L34.5349 34.6336Z" fill="#A48E7F"/>
</svg>
