<svg width="50" height="50" viewBox="0 0 50 50" fill="none" xmlns="http://www.w3.org/2000/svg">
<path d="M23.9656 24.7391C23.3078 24.1313 22.5781 23.2781 22.2609 22.5219C22.2125 22.425 22.1156 22.1813 22.2609 21.986C22.5531 21.5969 22.6016 21.5719 22.9188 21.2063C23.1375 20.9375 23.3078 20.6953 23.2359 20.475L22.1406 17.625C22.0422 17.4297 21.7516 17.4063 21.4094 17.3813C21.1172 17.3813 20.8016 17.3813 20.5813 17.4297C20.0938 17.6 19.0969 18.9156 18.975 19.8656C18.7063 21.936 20.5813 24.6891 22.4563 26.3938C24.3313 28.1235 27.2281 29.7563 29.2735 29.2922C30.2235 29.0735 31.4406 27.9766 31.5375 27.4656C31.5859 27.2469 31.5625 26.9297 31.5125 26.6375C31.4875 26.2969 31.4156 26.0531 31.2203 25.9563L28.7375 24.811C28.5172 24.6891 28.2985 24.786 28.0797 25.0547C27.8125 25.4203 27.6891 25.5656 27.3734 25.9563C27.2031 26.175 27.0813 26.3219 26.8875 26.3453C26.6672 26.3938 26.3766 26.2719 26.3266 26.2719C25.5469 26.0063 24.6469 25.3485 23.9656 24.7391ZM15.7844 33.486L17.1969 29.9047C15.6375 28.1016 14.6875 25.7375 14.6875 23.1563C14.6875 17.4563 19.3141 12.8516 25.0125 12.8516C30.7094 12.8516 35.311 17.4563 35.311 23.1563C35.311 28.8563 30.7094 33.486 25.0125 33.486C22.7234 33.486 20.6297 32.7547 18.925 31.4891L15.7844 33.486ZM14.0547 29.9766L12.1063 37.7719L19.0703 34.6047C20.8484 35.5297 22.8688 36.0672 25.0125 36.0672C32.1219 36.0672 37.8922 30.2938 37.8922 23.1547C37.8922 16.0422 32.1203 10.2672 25.0125 10.2672C17.8781 10.2672 12.1078 16.0406 12.1078 23.1547C12.1078 25.6656 12.8375 28.0047 14.0547 29.9766Z" fill="#A48E7F"/>
<path d="M25 1.5625C37.9234 1.5625 48.4375 12.0766 48.4375 25C48.4375 37.9234 37.9234 48.4375 25 48.4375C12.0766 48.4375 1.5625 37.9234 1.5625 25C1.5625 12.0766 12.0766 1.5625 25 1.5625ZM25 0C11.1922 0 0 11.1937 0 25C0 38.8063 11.1937 50 25 50C38.8063 50 50 38.8078 50 25C50 11.1922 38.8063 0 25 0Z" fill="#A48E7F"/>
<path d="M25 4.69843C36.1953 4.69843 45.3016 13.8062 45.3016 25.0015C45.3016 36.1969 36.1937 45.3031 25 45.3031C13.8062 45.3031 4.69843 36.1953 4.69843 25C4.69843 13.8047 13.8047 4.69843 25 4.69843ZM25 3.91718C13.3547 3.91718 3.91718 13.3562 3.91718 25C3.91718 36.6437 13.3547 46.0844 25 46.0844C36.6453 46.0844 46.0828 36.6453 46.0828 25C46.0828 13.3547 36.6437 3.91718 25 3.91718Z" fill="#A48E7F"/>
</svg>
