<svg width="300" height="200" viewBox="0 0 300 200" fill="none" xmlns="http://www.w3.org/2000/svg">
<path d="M86.9252 194.343C75.3161 191.11 65.824 182.088 61.9744 169.898L30.4361 70.017C29.1724 66.0159 28.616 61.9516 28.6753 57.9629L8.46448 72.7044C-0.564842 79.2894 -2.71401 92.2783 3.68621 101.569L62.7179 187.242C66.6279 192.917 72.8611 195.95 79.1778 195.95C81.7988 195.95 84.435 195.416 86.9252 194.343ZM25.0974 95.0185L17.694 91.3549L16.1264 92.4895L20.2547 98.5248L16.8489 100.99L6.55881 85.9417L9.96367 83.4769L13.9924 89.3683L15.1484 88.5308L14.3345 80.3122L18.5533 77.2573L18.6801 87.3507L29.2358 92.0216L25.0974 95.0185Z" fill="#5C5C5C"/>
<path d="M58.6661 38.8208C48.1396 42.3405 42.326 54.0799 45.746 64.9114L77.2852 164.786C80.0401 173.511 87.9798 179.087 96.4668 179.087C98.5143 179.087 100.596 178.763 102.643 178.077L102.528 178.059C89.9468 172.399 81.1348 159.556 81.1348 144.357V39.3425C81.1348 36.4346 81.6288 33.6064 82.2285 30.8889L58.6661 38.8208ZM66.9127 66.0522L60.7851 60.4227L58.974 61.0676L61.3164 68.0408L57.3813 69.4404L51.5405 52.0498L55.4756 50.6512L57.7616 57.4609L59.0968 56.9857L60.5255 48.8551L65.4014 47.1222L62.8085 56.8553L71.695 64.3503L66.9127 66.0522Z" fill="#5C5C5C"/>
<path d="M97.2335 39.3425V144.358C97.2335 155.37 105.451 163.987 115.989 164.545C112.931 161.609 110.441 158.113 108.481 154.156C104.082 145.272 103.344 135.177 106.327 125.73L137.889 25.6476C138.697 23.0916 139.777 21.3225 141.048 18.2168H117.235C106.167 18.2178 97.2335 27.9551 97.2335 39.3425ZM123.08 48.2392H118.02L114.015 40.9926H111.321V48.2392H107.296V29.6052H111.321V36.8518H113.512L117.442 29.6052H122.601L117.061 38.0505L123.08 48.2392Z" fill="#5C5C5C"/>
<path d="M153.22 30.9757L121.68 130.85C118.274 141.633 124.027 153.312 134.466 156.886C132.777 153.513 131.578 149.858 130.94 146.004C129.314 136.174 131.492 126.299 137.076 118.199L196.105 32.5265C197.893 29.9322 199.987 27.6216 202.307 25.6154L178.578 17.6815C176.531 16.9982 174.451 16.6721 172.402 16.6721C163.915 16.6732 155.975 22.2519 153.22 30.9757ZM174.766 48.6335L170.845 47.149L171.088 43.4304L165.798 41.4283L163.652 44.4263L159.732 42.9418L171.324 27.7251L175.509 29.308L174.766 48.6335Z" fill="#5C5C5C"/>
<path d="M171.326 40.0205L171.783 33.1777L171.716 33.1519L167.766 38.6716L171.326 40.0205Z" fill="#5C5C5C"/>
<path d="M291.536 76.7562L237.294 37.1912C233.781 34.628 229.723 33.3982 225.7 33.3982C219.384 33.3982 213.15 36.4314 209.24 42.1064L150.21 127.777C143.809 137.068 145.958 150.056 154.987 156.642L209.229 196.207C212.741 198.771 216.799 200 220.823 200C227.139 200 233.373 196.967 237.283 191.292L296.313 105.621C302.715 96.3302 300.564 83.3413 291.536 76.7562ZM226.074 41.9263L229.709 44.5827L224.075 63.0303L220.669 60.5437L221.85 57.0198L217.253 53.6616L214.42 55.9804L211.014 53.4918L226.074 41.9263ZM242.783 87.9459C262.585 138.137 237.945 151.976 226.188 148.128C219.475 145.933 216.484 141.268 215.425 135.973L207.778 149.024L198.296 142.1L207.322 130.891C202.268 131.449 197.146 129.544 193.044 123.925C185.635 113.774 190.2 85.2761 242.783 87.9459Z" fill="#5C5C5C"/>
<path d="M222.948 53.7909L225.13 47.3115L225.07 47.269L219.854 51.531L222.948 53.7909Z" fill="#5C5C5C"/>
</svg>
