<svg width="925" height="178" viewBox="0 0 925 178" fill="none" xmlns="http://www.w3.org/2000/svg">
<path d="M590.184 152.909C590.065 152.695 589.555 151.15 589.05 149.473C585.849 138.852 579.907 128.096 569.955 114.912C566.217 109.959 562.698 105.573 553.182 94.0056C542.164 80.6127 539.008 76.3216 535.821 70.4041C533.939 66.9091 531.989 61.5927 531.347 58.2059C530.705 54.8223 530.695 49.2927 531.325 46.4138C533.886 34.7031 544.289 25.8681 556.727 24.8395C570.977 23.6609 583.098 30.8588 589.466 44.2827L590.888 47.2795L591.959 44.9116C593.549 41.3931 595.081 39.0134 597.666 36.0445C604.248 28.4845 612.082 24.7816 621.519 24.7688C625.746 24.7634 628.168 25.1116 631.77 26.2538C637.158 27.9584 641.213 30.6145 644.825 34.8027C654.237 45.7173 653.123 60.5877 641.527 78.7988C638.823 83.047 633.942 89.3331 627.231 97.2134C619.502 106.287 615.725 110.899 611.859 115.985C602.591 128.174 596.358 139.251 592.93 149.622C592.407 151.205 591.858 152.679 591.712 152.899C591.371 153.413 590.465 153.413 590.184 152.909Z" fill="#FF0000"/>
<path d="M74.9999 14C52.0604 39.9887 26.2363 64.9888 0 89C27.4725 113.011 53.7088 138.011 74.9999 164C97.1154 137.516 121.291 112.269 150 89C122.115 64.9888 96.7032 39.495 74.9999 14Z" fill="#FF0000"/>
<path d="M355.016 163.805C355.384 163.942 355.267 164.139 355.016 163.805Z" fill="#A0A0A0"/>
<path d="M374.173 71.3746C364.868 71.5512 356.538 75.5737 350.625 81.9017C347.675 84.266 345.147 85.8299 343.877 83.9789C341.344 81.1079 349.244 77.0125 354.114 72.6513L353.339 72.6654C360.453 66.3891 364.878 57.1151 364.687 46.8426C364.343 28.3598 349.202 13.6573 330.867 14.0061C312.531 14.3522 297.948 29.6152 298.291 48.0974C298.505 59.6064 304.462 69.6506 313.354 75.5075C318.077 78.8777 323.347 81.9297 321.327 84.4071C320.123 86.3051 317.539 84.8335 314.505 82.5844C308.362 76.4824 299.885 72.7803 290.582 72.9545C272.246 73.3007 257.661 88.5663 258.006 107.049C258.35 125.528 273.493 140.231 291.826 139.882C308.72 139.565 322.416 126.581 324.201 110.089C324.203 110.082 324.213 110.089 324.213 110.089C324.472 108.636 324.889 105.468 325.941 105.532C327.182 105.603 327.558 105.306 327.661 110.88C328.551 138.163 313.562 163.044 313.191 163.725C313.156 163.791 313.135 163.795 313.105 163.838C313.229 163.779 313.411 163.73 313.687 163.725C314.736 163.706 334.088 163.725 334.088 163.725C334.088 163.725 353.439 163.744 354.488 163.725C354.731 163.72 354.894 163.758 355.016 163.805C354.99 163.77 354.975 163.772 354.947 163.725C354.554 163.061 338.655 137.973 338.53 110.675C338.426 105.103 338.813 105.384 340.05 105.263C341.099 105.162 341.632 108.311 341.945 109.745C341.947 109.752 341.956 109.745 341.956 109.745C344.355 126.167 358.526 138.625 375.419 138.304C393.753 137.956 408.339 122.693 407.994 104.213C407.649 85.7307 392.508 71.0285 374.173 71.3746Z" fill="#A0A0A0"/>
<path d="M313.105 163.837C312.897 164.12 312.801 163.976 313.105 163.837Z" fill="#A0A0A0"/>
<path d="M901.156 64.9985C868.75 43.9256 857.584 27.0565 850.001 14.0003C850 14.0003 850 14 850 14V14.0003C842.417 27.0565 831.25 43.9259 798.845 64.9985C743.593 100.929 795.601 151.083 841.327 123.479C838.347 140.607 828.18 153.094 817.854 158.471V164H850H882.145V158.472C871.819 153.095 861.652 140.608 858.673 123.479C904.398 151.083 956.407 100.929 901.156 64.9985Z" fill="#A0A0A0"/>
</svg>
